HIERARCHY
ROOT Hips
{
	OFFSET -14.64140 90.27770 -84.91600
	CHANNELS 6 Xposition Yposition Zposition Zrotation Xrotation Yrotation
	JOINT Spine
	{
		OFFSET 0.00000 13.20850 -1.60436
		CHANNELS 3 Zrotation Xrotation Yrotation
		JOINT Spine1
		{
			OFFSET 0.00000 8.61716 0.00000
			CHANNELS 3 Zrotation Xrotation Yrotation
			JOINT Spine2
			{
				OFFSET 0.00000 8.61717 0.00000
				CHANNELS 3 Zrotation Xrotation Yrotation
				JOINT Spine3
				{
					OFFSET 0.00000 8.61717 0.00000
					CHANNELS 3 Zrotation Xrotation Yrotation
					JOINT Neck
					{
						OFFSET 0.00000 11.07920 1.10792
						CHANNELS 3 Zrotation Xrotation Yrotation
						JOINT Neck1
						{
							OFFSET 0.00000 7.08032 0.00000
							CHANNELS 3 Zrotation Xrotation Yrotation
							JOINT Head
							{
								OFFSET 0.00000 7.08031 0.00000
								CHANNELS 3 Zrotation Xrotation Yrotation
								End site
								{
									OFFSET 0.00000 0.00000 0.00000
								}
							}
						}
					}
					JOINT RightShoulder
					{
						OFFSET -0.01000 7.91373 5.19711
						CHANNELS 3 Zrotation Xrotation Yrotation
						JOINT RightArm
						{
							OFFSET -18.41580 0.00000 0.00000
							CHANNELS 3 Zrotation Xrotation Yrotation
							JOINT RightForeArm
							{
								OFFSET -29.11090 0.00000 0.00000
								CHANNELS 3 Zrotation Xrotation Yrotation
								JOINT RightHand
								{
									OFFSET -24.65040 0.00000 0.00000
									CHANNELS 3 Zrotation Xrotation Yrotation
									JOINT RightHandThumb1
									{
										OFFSET -5.35114 -0.85590 3.97906
										CHANNELS 3 Zrotation Xrotation Yrotation
										JOINT RightHandThumb2
										{
											OFFSET -4.52789 0.00000 0.00000
											CHANNELS 3 Zrotation Xrotation Yrotation
											JOINT RightHandThumb3
											{
												OFFSET -2.46976 0.00000 0.00000
												CHANNELS 3 Zrotation Xrotation Yrotation
												End site
												{
													OFFSET 0.00000 0.00000 0.00000
												}
											}
										}
									}
									JOINT RightHandIndex1
									{
										OFFSET -14.26970 0.00000 2.88139
										CHANNELS 3 Zrotation Xrotation Yrotation
										JOINT RightHandIndex2
										{
											OFFSET -5.48836 0.00000 0.00000
											CHANNELS 3 Zrotation Xrotation Yrotation
											JOINT RightHandIndex3
											{
												OFFSET -3.01859 0.00000 0.00000
												CHANNELS 3 Zrotation Xrotation Yrotation
												End site
												{
													OFFSET 0.00000 0.00000 0.00000
												}
											}
										}
									}
									JOINT RightHandMiddle1
									{
										OFFSET -14.26970 0.00000 -0.09147
										CHANNELS 3 Zrotation Xrotation Yrotation
										JOINT RightHandMiddle2
										{
											OFFSET -6.17441 0.00000 0.00000
											CHANNELS 3 Zrotation Xrotation Yrotation
											JOINT RightHandMiddle3
											{
												OFFSET -3.56743 0.00000 0.00000
												CHANNELS 3 Zrotation Xrotation Yrotation
												End site
												{
													OFFSET 0.00000 0.00000 0.00000
												}
											}
										}
									}
									JOINT RightHandRing1
									{
										OFFSET -12.69180 0.00000 -3.06433
										CHANNELS 3 Zrotation Xrotation Yrotation
										JOINT RightHandRing2
										{
											OFFSET -5.62556 0.00000 0.00000
											CHANNELS 3 Zrotation Xrotation Yrotation
											JOINT RightHandRing3
											{
												OFFSET -3.56744 0.00000 0.00000
												CHANNELS 3 Zrotation Xrotation Yrotation
												End site
												{
													OFFSET 0.00000 0.00000 0.00000
												}
											}
										}
									}
									JOINT RightHandPinky1
									{
										OFFSET -11.11390 0.00000 -6.03719
										CHANNELS 3 Zrotation Xrotation Yrotation
										JOINT RightHandPinky2
										{
											OFFSET -4.52789 0.00000 0.00000
											CHANNELS 3 Zrotation Xrotation Yrotation
											JOINT RightHandPinky3
											{
												OFFSET -2.46976 0.00000 0.00000
												CHANNELS 3 Zrotation Xrotation Yrotation
												End site
												{
													OFFSET 0.00000 0.00000 0.00000
												}
											}
										}
									}
								}
							}
						}
					}
					JOINT LeftShoulder
					{
						OFFSET 0.01000 7.91373 5.19711
						CHANNELS 3 Zrotation Xrotation Yrotation
						JOINT LeftArm
						{
							OFFSET 18.41580 0.00000 0.00000
							CHANNELS 3 Zrotation Xrotation Yrotation
							JOINT LeftForeArm
							{
								OFFSET 29.11090 0.00000 0.00000
								CHANNELS 3 Zrotation Xrotation Yrotation
								JOINT LeftHand
								{
									OFFSET 24.65040 0.00000 0.00000
									CHANNELS 3 Zrotation Xrotation Yrotation
									JOINT LeftHandThumb1
									{
										OFFSET 5.35114 -0.85590 3.97906
										CHANNELS 3 Zrotation Xrotation Yrotation
										JOINT LeftHandThumb2
										{
											OFFSET 4.52789 0.00000 0.00000
											CHANNELS 3 Zrotation Xrotation Yrotation
											JOINT LeftHandThumb3
											{
												OFFSET 2.46977 0.00000 0.00000
												CHANNELS 3 Zrotation Xrotation Yrotation
												End site
												{
													OFFSET 0.00000 0.00000 0.00000
												}
											}
										}
									}
									JOINT LeftHandIndex1
									{
										OFFSET 14.26970 0.00000 2.88139
										CHANNELS 3 Zrotation Xrotation Yrotation
										JOINT LeftHandIndex2
										{
											OFFSET 5.48836 0.00000 0.00000
											CHANNELS 3 Zrotation Xrotation Yrotation
											JOINT LeftHandIndex3
											{
												OFFSET 3.01859 0.00000 0.00000
												CHANNELS 3 Zrotation Xrotation Yrotation
												End site
												{
													OFFSET 0.00000 0.00000 0.00000
												}
											}
										}
									}
									JOINT LeftHandMiddle1
									{
										OFFSET 14.26970 0.00000 -0.09147
										CHANNELS 3 Zrotation Xrotation Yrotation
										JOINT LeftHandMiddle2
										{
											OFFSET 6.17440 0.00000 0.00000
											CHANNELS 3 Zrotation Xrotation Yrotation
											JOINT LeftHandMiddle3
											{
												OFFSET 3.56744 0.00000 0.00000
												CHANNELS 3 Zrotation Xrotation Yrotation
												End site
												{
													OFFSET 0.00000 0.00000 0.00000
												}
											}
										}
									}
									JOINT LeftHandRing1
									{
										OFFSET 12.69180 0.00000 -3.06433
										CHANNELS 3 Zrotation Xrotation Yrotation
										JOINT LeftHandRing2
										{
											OFFSET 5.62556 0.00000 0.00000
											CHANNELS 3 Zrotation Xrotation Yrotation
											JOINT LeftHandRing3
											{
												OFFSET 3.56744 0.00000 0.00000
												CHANNELS 3 Zrotation Xrotation Yrotation
												End site
												{
													OFFSET 0.00000 0.00000 0.00000
												}
											}
										}
									}
									JOINT LeftHandPinky1
									{
										OFFSET 11.11390 0.00000 -6.03719
										CHANNELS 3 Zrotation Xrotation Yrotation
										JOINT LeftHandPinky2
										{
											OFFSET 4.52789 0.00000 0.00000
											CHANNELS 3 Zrotation Xrotation Yrotation
											JOINT LeftHandPinky3
											{
												OFFSET 2.46976 0.00000 0.00000
												CHANNELS 3 Zrotation Xrotation Yrotation
												End site
												{
													OFFSET 0.00000 0.00000 0.00000
												}
											}
										}
									}
								}
							}
						}
					}
					JOINT pCube4
					{
						OFFSET 0.00000 10.91090 1.10792
						CHANNELS 3 Zrotation Xrotation Yrotation
						End site
						{
							OFFSET 0.00000 0.00000 0.00000
						}
					}
				}
			}
		}
	}
	JOINT RightUpLeg
	{
		OFFSET -9.98441 0.00000 0.00000
		CHANNELS 3 Zrotation Xrotation Yrotation
		JOINT RightLeg
		{
			OFFSET 0.00000 -42.11790 0.00000
			CHANNELS 3 Zrotation Xrotation Yrotation
			JOINT RightFoot
			{
				OFFSET 0.00000 -45.00020 -0.00001
				CHANNELS 3 Zrotation Xrotation Yrotation
				JOINT RightForeFoot
				{
					OFFSET 0.00000 -3.74820 0.00000
					CHANNELS 3 Zrotation Xrotation Yrotation
					JOINT RightToeBase
					{
						OFFSET 0.00000 0.06325 14.43120
						CHANNELS 3 Zrotation Xrotation Yrotation
						End site
						{
							OFFSET 0.00000 0.00000 0.00000
						}
					}
				}
			}
		}
	}
	JOINT LeftUpLeg
	{
		OFFSET 9.98441 0.00000 0.00000
		CHANNELS 3 Zrotation Xrotation Yrotation
		JOINT LeftLeg
		{
			OFFSET 0.00000 -42.11800 0.00000
			CHANNELS 3 Zrotation Xrotation Yrotation
			JOINT LeftFoot
			{
				OFFSET 0.00000 -45.00070 0.00000
				CHANNELS 3 Zrotation Xrotation Yrotation
				JOINT LeftForeFoot
				{
					OFFSET 0.00000 -3.74824 0.00000
					CHANNELS 3 Zrotation Xrotation Yrotation
					JOINT LeftToeBase
					{
						OFFSET 0.00000 0.06325 14.43110
						CHANNELS 3 Zrotation Xrotation Yrotation
						End site
						{
							OFFSET 0.00000 0.00000 0.00000
						}
					}
				}
			}
		}
	}
}
MOTION
Frames: 4
Frame Time: 0.050000
-0.02631902964172473 -0.020077477874777476 -0.018654332717954452 0.02284710617433738 0.017937014997855574 -0.004086806296229292 -1.5768237548257007 1.8876039142054581 -0.904772740654494 -0.9838265725556063 3.925088023748711 0.39051709589709166 -1.0211063979462167 -1.2421049124828007 -0.680627989641902 0.7431639956680376 0.5276526021087472 -0.8229696437285423 -0.0020874925332238156 11.7409005216645 -1.0646158000741295 0.13326206934119553 -1.032937849869094 -4.362090873520284 0.620412607807032 -16.547434775143156 -0.3798141951070224 -2.0091764105449728 0.8638887860994732 -15.141589428139323 74.72653262841354 26.013277609371624 1.1831014924166354 11.701843809795493 2.2568455336603614 47.12280179769487 21.36286406763832 0.047312570128990136 -4.945023802293516 4.543037633898779 -0.17596587173653574 -1.5765223259066543 0.027949536010112085 -0.025696349841093116 -56.21993990911182 -0.04533215527716269 0.022263768780950363 -56.27026095700078 -38.7316510466269 0.014637346692282335 -0.012745989730127335 -0.022403328540827935 -0.002724698050759132 -0.026745129140147615 0.027531099125057898 -0.007934628387897255 -0.0015997037726411631 -36.730848875075154 0.0009052451024372319 0.012377505159017942 -0.04023370383007286 -0.0009138680418845091 -0.018707787081822816 -0.043315008740574 -0.03788415359036364 -0.03604092311105759 -19.76741346288652 0.020258045572662208 -0.012257371384915098 0.015611172899925179 0.044060760501212784 -0.022352850638760014 -0.002317952464692899 -0.014524599513565991 -0.03564820714383378 24.04361590281181 -0.04591350733050281 -0.03258255640000149 28.851578638867167 -0.01318590899482081 0.00867165418880341 28.819928019798745 0.04174091515202054 0.01425731987941214 3.600090246008499 1.0069803297265154 13.746428226487865 -69.96906196383625 34.783103261289284 -6.62257878660475 -4.070772381767319 -3.2251387804311498 -95.46659631763187 -14.53790155986778 -4.7685839849230005 2.9675779797544037 -0.4664989509689999 0.09437325308046174 -8.101941810460769 -0.0339328209479048 0.0013473627834865807 44.55010644903618 0.005519934303128351 0.013675176614063655 44.52889496136037 12.492382105059525 -0.034758667881678314 -0.00471975423450303 0.007989546666652705 -0.00913168501479584 -0.0033840632059645597 -0.03757613544983511 -0.019307922215419177 -0.02310576062995661 11.090514797071462 -0.014660017844372078 -0.043261420414614116 -0.027895918511049462 -0.009823177482731846 -0.02399478003870286 0.014348195106255651 -0.013016871994044008 0.04615654424753384 4.779176133102662 0.026394529911637956 -0.030364118523454095 0.04803745097953493 -0.0024741080708657742 0.049930860506261374 -0.03301093553599051 -0.011876055061980946 0.001113253603849415 -5.57700891501501 -0.025367617735349967 -0.03341821874098189 -6.745113698633133 -0.03287826733151485 -0.02947000105974995 -6.7295472627603345 -0.008887604216721455 -0.013807104301173087 0.012625441230132546 -0.005864017972166882 -0.002610710694184809 8.044582695808684 3.4521523159085636 -19.238505827112558 0.025731941855345823 10.369671924878611 -0.031137300214598793 -5.636897416509023 -15.631260785052374 3.214227770655751 -0.04273308114910201 -0.003840184810318716 -0.04200352721938691 0.04295932530115643 4.715863021171948 -0.019866493092119606 12.415539619200835 -8.233945728968395 6.874260744022334 -0.026253970477153957 46.367421140888325 0.011099562148603958 -4.304986740836775 -14.750013899414244 -3.8563427513240507 -0.019286221171031893 -0.012779997196615609 -0.04022072397862387 -0.011783567077991853 -10.738102485924541 -0.02979153828705533 
0.012013114951866457 -0.004195868569993113 0.015544969088127648 0.0296976594695633 -0.015421183524834688 -0.0034056955095725277 -1.4026840279302337 1.6318034163392134 -0.9834376022673676 -0.9007215510279468 3.911429421930002 0.37947359729890806 -1.103084332703168 -1.3631694433967196 -0.7351945725470802 0.6797564559993738 0.45449890855703257 -0.7400827925233608 0.18493088623305626 11.668143102724086 -1.369422053558063 0.1426197924189948 -0.9594713363927607 -4.828459792898472 0.7934050023853224 -16.42731184505094 -0.3820744689118546 -2.2648692027083235 0.9626911840885101 -15.249045701406386 75.01392084117818 25.980524240683174 0.7871867893803488 12.398228294551224 2.755813725101179 46.894940641390136 21.85843742555761 0.06527299348038443 -4.908310563914275 4.500909812431984 -0.09363331444600208 -1.6194462709450166 -0.0077696524722255704 -0.0006833881563240529 -56.252725403060495 0.020417737410895684 0.000134564144003279 -56.2819547068439 -38.78611664510656 -0.018031531104968076 -0.0036865438057212775 0.008074822653881248 -0.03220782411094783 -0.009642058142558533 -0.00893587074167651 -0.02853873278235391 -0.01571614245147315 -36.68363645506297 0.013744431430295613 0.0033454378433822704 -0.026885833127873862 0.046355519020123304 -0.004965218500482117 -0.027463410242607282 -0.011424770871052517 -0.017805845454386206 -19.784492463053095 0.016937124681976518 0.008030333438509625 -0.01495028671600226 -0.04574144780268858 -0.03441034046670215 0.041988679763161785 -0.02796051011037512 -0.03468651925871661 24.075215720974366 0.013889334749979186 0.020525882939448646 28.848117999901056 0.009355869249154648 -0.031664654528489204 28.881164402119094 0.03542937669914057 0.03147832655321151 3.6236542916684287 1.0396698102046715 13.769393284789023 -70.3688906632638 35.370672445297814 -5.543021866511263 -3.7381660477875407 -4.045195308554002 -96.30738304720255 -14.44456908758397 -4.935035745856556 2.6554365810386904 -0.4977279966091812 0.07280153661702589 -8.15833556115021 0.049884211111711686 -0.016118256423813548 44.54572548293482 -0.011846344203943407 0.004031766051984541 44.52129706913578 12.417085392959022 -0.013216108407526248 0.03137443201783267 -0.0011444927764068802 0.012026675831078183 -0.012228267420375366 -0.02860425147473484 -0.0058586885403882315 0.008075327797180594 11.079815731264944 -0.04860192307952057 0.027197434177659317 0.03085879985247882 0.011233949986099272 0.0401516452498545 0.025159413505871572 0.003959359264022867 0.022208191993737577 4.728739507130874 0.01041060892483039 0.04907080502969692 -0.02959559736812439 -0.04741368998307116 0.019828253481710106 0.02871681589601931 0.03926623713899422 -0.034241470621125154 -5.579354941470948 -0.005937575201180635 -0.01573663287377238 -6.692457065190294 -0.03348857175525628 0.028395759449680574 -6.71978761857657 0.02246995168743352 -0.0351377498299301 -0.033219161107191295 -0.029827978438735688 -0.024987977159795925 8.01590380719536 3.5138053141522807 -19.249481907923094 0.027008415108608554 10.366444510536052 0.015105063397733697 -5.621645989179121 -15.618652852874504 3.1896175648992116 -0.037708379758123564 0.044546334953481904 0.009446774419303665 0.033297385255204606 4.71253137325964 0.005343587673716169 12.454097741376174 -8.216405508128338 6.900313507200924 0.04073028519728445 46.41316832343393 -0.03606897212502119 -4.335530557098925 -14.749854015609069 -3.8217763867041885 0.015208855166602574 -0.04583599501295536 -0.017132634586147024 -0.006219484929216253 -10.756397814395012 0.016906602371160127 
0.01612149439963351 -0.011531878787769087 0.004648097302289898 0.041866086714119316 0.0364565527069924 -0.029961722582234653 -1.3275560577268277 1.437047393243758 -0.9365959000724031 -0.90822687057352 3.893616422152507 0.36212239790643874 -1.0703355863680784 -1.4136238606495017 -0.7714236636955643 0.6961636682832186 0.39205651978820705 -0.7966194105005111 0.19296087712261725 11.74052149405916 -1.3351175464145426 0.22199413299178083 -0.8700649554074638 -4.867900988237463 0.8413887909403129 -16.315095589960066 -0.4425363714309221 -2.3968897624026373 1.069842258280113 -15.312126329994474 75.2825912594324 25.924952914029525 0.20862619303326888 12.92097782573345 3.330108851719207 46.50480663270739 22.112645892894392 0.06378863892806746 -4.877145142302568 4.513794735535305 -0.09777522012341515 -1.5885815697424062 -0.04438252837424548 0.023288524937104503 -56.19425066106375 0.004336196517275177 -0.03959193116367903 -56.22585301810793 -38.81492253878937 -0.04291827058682079 -0.020183146704596845 -0.025408440747062583 0.00018979368843147774 0.041758615620842 -0.03749643223004032 0.024070362064462583 -0.038219241685934005 -36.69831286192627 -0.025221455187322734 -0.0016336283481329773 -0.04421914780186589 0.03940013130791882 0.013740726948464035 0.025712397706287648 -0.029470403014376718 -0.02021761750820212 -19.75823993681062 0.0074242294480616495 -0.049988762546125796 -0.013767152646312699 -0.03518671548438339 0.02617343898546024 0.0488005658486171 0.028543149833405484 -0.029966903255268934 24.085727210385528 0.0003611973993452367 -0.0006182521395467114 28.88374841536267 0.01455785602597321 -0.00424906625315508 28.821129095263807 -0.02155315952077003 -0.047945604499124515 3.652266260286362 1.115523679212667 13.680471307979905 -70.76698047112554 35.863744121728196 -4.826586405397206 -3.7260255713232437 -4.6776722073610495 -96.78043902094122 -14.072798160349807 -4.874382632013001 2.1342758887793907 -0.5041014749645976 0.04400316149613284 -8.097491250908323 0.034920300315820274 -0.0053267068108810035 44.59808762081113 -0.008256916414804163 0.012903632712620444 44.54549090022277 12.448260034747324 -0.0007297067799090007 -0.0009340952042202746 0.02466749181584189 0.047501684306472065 -0.04268442314250363 -0.04379149572423001 0.01880565363259841 -0.02837938326516709 11.131192593879279 0.017038408020963264 0.047503369821952614 -0.007172104778497337 0.03943367435317096 0.017185765585488833 0.015741270243810536 -0.006085827885034256 0.004517426224058566 4.790499730457397 -0.007322969221868923 0.007626534620853074 0.04444444816935025 -0.004005122523951259 0.00986734297528607 -0.04778013750659993 0.00463998032749896 -0.004806304279197772 -5.5621323814823205 0.024321301939750253 -0.02605006189188798 -6.673773369154737 0.013880740805216046 -0.024789821100996208 -6.706443216429371 -0.021038473430055132 0.006339348213633053 0.03753266911193193 -0.029887638071669023 0.033485435297352775 8.032909320238277 3.504087986778275 -19.185908347565732 0.04973816491500072 10.443307521796093 0.032293661620266936 -5.610245437544778 -15.653979053157437 3.1941534556093902 0.003918318657231335 -0.005502280118896616 0.022400627209486098 -0.01011481552803362 4.66265460890152 -0.007169709887109074 12.433253523878582 -8.193596902793614 6.8610456655388905 0.03187329549940079 46.36558031718152 0.04829488450853159 -4.352653673152513 -14.724855626594524 -3.8567880672777966 -0.005220658021057383 0.033972782948955345 -0.030684905294642326 -0.0059669233247747425 -10.714167183230465 -0.04015978102498439 
0.03271434679618701 -0.006183982078199118 0.010428831514594662 -0.0038397019801175492 0.041507425418546816 -0.04340175565365057 -1.396463771626 1.2982739217994301 -0.9242958844278526 -0.8882670360283839 3.858305711721584 0.32908220311583686 -1.1151999893061477 -1.4687432685160207 -0.7041698443649922 0.619350455208719 0.4090029846816915 -0.8106746978161613 0.2703571126478992 11.982020927331366 -1.2858639069020215 0.27289528307425553 -0.6350103493579743 -4.572971513727769 0.8212730075765056 -16.028679742704348 -0.3933247949491596 -2.5727841243348797 1.071169062300441 -15.30559960412413 75.52422371943052 26.117426042478357 -0.1919530284122145 13.529387784999543 3.6966358437868263 46.45159379526339 22.260215048605826 0.017489714381960786 -4.91845734172756 4.547752190898937 -0.1589514199794746 -1.609793498692746 -0.01001984610639214 0.005638202181277722 -56.24626462126055 0.029953867364486717 0.024194179228417344 -56.24066140839022 -38.76431662678889 0.009358087254693672 -0.008635618175899699 -0.008526989657549876 -0.038551226143209376 -0.007496330177270133 0.04606237395889053 0.00861627279455351 -0.023924297287444357 -36.71426434603786 -0.01614309516942856 -0.018402402082845933 0.015657960345986315 0.03815641589824727 0.003295799739583198 0.01167489714054095 0.034233558045805475 -0.002723929803025577 -19.743217277209425 -0.0027368013605785025 0.025686384058076012 -0.0010970493934669308 0.03478530878967962 -0.0021164690313953786 0.016765338551239198 -0.030403069108882817 0.007034910695155524 24.05790854264429 0.005054124034546013 0.01941517950904606 28.873295841749705 0.017970560164681702 -0.009393863253226668 28.867527418987198 0.006223018970614995 -0.030350728442028952 3.8287042926789305 1.1706597137199612 13.755310272140223 -70.93712527012023 36.112682278285355 -4.507744114236763 -3.5925823069391023 -5.405457849479789 -97.70171946690573 -12.938242013714055 -4.606500388790551 1.2812164587049815 -0.4639161075914273 0.08880085606349297 -8.119139135884309 -0.010854594094444203 -0.049976673961249586 44.55242281662272 0.006404997718907353 -0.0031550545136413556 44.52495049964895 12.457405911832586 0.009909885514593193 0.03732919261277754 -0.036813923699587935 -0.01836524511003197 0.021484658618040154 -0.012649415407056136 -0.00028172652284583964 -0.0026068916600608975 11.136367188059578 -0.0276934091650647 -0.03366744290852155 -0.0030924762360848347 0.026857799764257374 -0.007949683300228692 0.021314349803999155 0.01452319019211067 0.02563164109377888 4.750649215888208 -0.031720676167328085 -0.012386506447716442 -0.017883691088517693 -0.006367755271043704 -0.02746117117938214 0.024259979188036622 -0.02198608414955654 -0.01742234957900451 -5.607035266457469 0.018802369471796018 0.009545134946176823 -6.741096539014931 -0.022228061033949947 0.044298011524878694 -6.761177596823083 0.04889824632564195 0.04519583066268396 -0.0074751429738884444 0.020631056469572102 -0.04797187109112841 8.057005098639502 3.526149732824466 -19.19755536695178 -0.0340825950939195 10.38920012777509 0.003057228761180737 -5.613834086596328 -15.668819438010772 3.1982575620632985 -0.04823785549638164 -0.0008394635734217244 -0.03309259772252246 -0.0059266001706143176 4.727612175367737 0.03305642787273304 12.418160217664486 -8.191896840832635 6.8686072221238055 0.01573681196437113 46.408865433906506 -0.03213213415302148 -4.285800303222206 -14.709877113009945 -3.850512494377804 0.01330169812105817 0.049760601965339844 -0.03964896850458339 -0.020101590908589383 -10.745732318045512 0.0020735164467257537 
